HIERARCHY
ROOT joint_Root
{
	OFFSET 0.0 0.0 0.0
	CHANNELS 6 Xposition Yposition Zposition Zrotation Xrotation Yrotation 
	JOINT Hips
	{
		OFFSET 4.5925 91.4895 -427.239
		CHANNELS 6 Xposition Yposition Zposition Zrotation Xrotation Yrotation 
		JOINT Spine
		{
			OFFSET 15.7357 0.0 0.0
			CHANNELS 6 Xposition Yposition Zposition Zrotation Xrotation Yrotation 
			JOINT Chest
			{
				OFFSET 8.98455 -0.406207 0.0
				CHANNELS 6 Xposition Yposition Zposition Zrotation Xrotation Yrotation 
				JOINT Neck
				{
					OFFSET 16.3773 0.0 0.0
					CHANNELS 6 Xposition Yposition Zposition Zrotation Xrotation Yrotation 
					JOINT Head
					{
						OFFSET 6.45672 0.0 0.0
						CHANNELS 6 Xposition Yposition Zposition Zrotation Xrotation Yrotation 
						End Site
						{
							OFFSET 0.0 0.0 0.0
						}
					}
				}
				JOINT Shoulder_L
				{
					OFFSET 12.9942 -0.242716 4.98039
					CHANNELS 6 Xposition Yposition Zposition Zrotation Xrotation Yrotation 
					JOINT UpperArm_L
					{
						OFFSET 5.34809 0.0 0.0
						CHANNELS 6 Xposition Yposition Zposition Zrotation Xrotation Yrotation 
						JOINT LowerArm_L
						{
							OFFSET 24.3286 1.87007e-05 0.0
							CHANNELS 6 Xposition Yposition Zposition Zrotation Xrotation Yrotation 
							JOINT Hand_L
							{
								OFFSET 22.2916 0.0 0.0
								CHANNELS 6 Xposition Yposition Zposition Zrotation Xrotation Yrotation 
								End Site
								{
									OFFSET 0.0 0.0 0.0
								}
							}
						}
					}
				}
				JOINT Shoulder_R
				{
					OFFSET 12.9945 -0.242716 -4.98039
					CHANNELS 6 Xposition Yposition Zposition Zrotation Xrotation Yrotation 
					JOINT UpperArm_R
					{
						OFFSET -5.34813 0.0 0.0
						CHANNELS 6 Xposition Yposition Zposition Zrotation Xrotation Yrotation 
						JOINT LowerArm_R
						{
							OFFSET -24.3289 0.000322201 0.0
							CHANNELS 6 Xposition Yposition Zposition Zrotation Xrotation Yrotation 
							JOINT Hand_R
							{
								OFFSET -22.2915 -0.000108084 0.0
								CHANNELS 6 Xposition Yposition Zposition Zrotation Xrotation Yrotation 
								End Site
								{
									OFFSET 0.0 0.0 0.0
								}
							}
						}
					}
				}
			}
		}
		JOINT UpperLeg_L
		{
			OFFSET -2.19248 -6.46944 0.0
			CHANNELS 6 Xposition Yposition Zposition Zrotation Xrotation Yrotation 
			JOINT LowerLeg_L
			{
				OFFSET 39.0811 0.0 -1.23785e-05
				CHANNELS 6 Xposition Yposition Zposition Zrotation Xrotation Yrotation 
				JOINT Foot_L
				{
					OFFSET 40.9854 0.0 -1.26872e-05
					CHANNELS 6 Xposition Yposition Zposition Zrotation Xrotation Yrotation 
					JOINT Toes_L
					{
						OFFSET 11.7543 0.0 0.0
						CHANNELS 6 Xposition Yposition Zposition Zrotation Xrotation Yrotation 
						End Site
						{
							OFFSET 0.0 0.0 0.0
						}
					}
				}
			}
		}
		JOINT UpperLeg_R
		{
			OFFSET -2.19251 6.46944 0.0
			CHANNELS 6 Xposition Yposition Zposition Zrotation Xrotation Yrotation 
			JOINT LowerLeg_R
			{
				OFFSET -39.0811 -0.00228153 -0.0401928
				CHANNELS 6 Xposition Yposition Zposition Zrotation Xrotation Yrotation 
				JOINT Foot_R
				{
					OFFSET -40.9854 0.0 0.0
					CHANNELS 6 Xposition Yposition Zposition Zrotation Xrotation Yrotation 
					JOINT Toes_R
					{
						OFFSET -11.7543 0.0 0.0
						CHANNELS 6 Xposition Yposition Zposition Zrotation Xrotation Yrotation 
						End Site
						{
							OFFSET 0.0 0.0 0.0
						}
					}
				}
			}
		}
	}
}
MOTION
Frames:	5
Frame Time:	0.0333333
0.000000 0.000000 0.000000 0.000000 0.000000 -0.000000 -1.815230 91.100200 1.908780 89.758700 -3.625560 12.803500 15.735700 0.000005 -0.000001 83.035300 82.323000 -82.322700 8.984550 -0.406207 -0.000000 7.489700 -1.856400 1.545300 16.377300 -0.000001 -0.000001 15.446200 -5.140830 -0.680161 6.456720 -0.000001 -0.000000 8.960400 -5.716760 3.528190 12.994200 -0.242716 4.980390 -91.574100 5.643070 -74.386300 5.348090 -0.000007 -0.000001 -66.266900 35.196900 -12.671500 24.328600 0.000019 0.000005 11.279800 25.481700 -24.872400 22.291600 -0.000001 0.000005 6.929900 5.297460 0.143003 12.994500 -0.242716 -4.980390 88.098900 11.898700 -80.854600 -5.348130 -0.000001 -0.000004 -62.186100 35.098400 -8.540580 -24.328900 0.000322 -0.000009 1.811240 5.419060 -18.522900 -22.291500 -0.000108 -0.000004 11.984200 5.380020 -2.299140 -2.192480 -6.469440 -0.000000 -172.590000 -15.322200 6.421740 39.081100 -0.000007 -0.000012 -0.173194 0.333608 27.436600 40.985400 -0.000006 -0.000013 0.724935 9.087000 -70.381800 11.754300 -0.000000 0.000003 -0.000203 -0.001875 -16.648300 -2.192510 6.469440 -0.000001 170.691000 24.228300 -171.774000 -39.081100 -0.002282 -0.040193 -0.213086 0.425829 26.938700 -40.985400 0.000008 0.000006 4.745060 19.134200 -71.454800 -11.754300 -0.000006 -0.000006 -0.000748 -0.011754 -17.051300
0.000000 0.000000 0.000000 0.000000 0.000000 -0.000000 -1.842110 91.085300 1.838580 89.786700 -3.409990 13.131000 15.735700 0.000005 -0.000001 82.609100 82.223900 -81.880900 8.984550 -0.406207 -0.000000 7.673600 -1.993230 1.588580 16.377300 -0.000001 -0.000001 16.547600 -5.588940 -0.525520 6.456720 -0.000001 -0.000000 9.783640 -6.213420 3.761750 12.994200 -0.242716 4.980390 -91.503100 5.371360 -74.341400 5.348090 -0.000007 -0.000001 -65.651100 35.351800 -13.555400 24.328600 0.000019 0.000005 11.811100 25.499000 -25.908100 22.291600 -0.000001 0.000005 6.955680 5.323400 -0.593971 12.994500 -0.242716 -4.980390 88.107200 11.757600 -80.787800 -5.348130 -0.000001 -0.000004 -62.382500 35.048200 -8.545470 -24.328900 0.000322 -0.000009 1.848120 5.467480 -18.718600 -22.291500 -0.000108 -0.000004 11.980900 5.377830 -2.230540 -2.192480 -6.469440 -0.000000 -172.572000 -15.138000 6.620150 39.081100 -0.000007 -0.000012 -0.170727 0.327332 27.545500 40.985400 -0.000006 -0.000013 0.734735 9.116080 -70.376200 11.754300 -0.000000 0.000003 -0.000213 -0.001954 -16.651100 -2.192510 6.469440 -0.000001 170.462000 24.412900 -171.459000 -39.081100 -0.002282 -0.040193 -0.215332 0.428115 27.053800 -40.985400 0.000008 0.000006 4.794450 19.171500 -71.505000 -11.754300 -0.000006 -0.000006 -0.000728 -0.011461 -17.039400
0.000000 0.000000 0.000000 0.000000 0.000000 -0.000000 -1.884670 91.078100 1.720280 89.818800 -3.214470 13.347300 15.735700 0.000005 -0.000001 82.564500 82.156000 -81.837500 8.984550 -0.406207 -0.000000 7.807020 -2.021580 1.590600 16.377300 -0.000001 -0.000001 17.594500 -6.052200 -0.331477 6.456720 -0.000001 -0.000000 10.614900 -6.782390 4.120390 12.994200 -0.242716 4.980390 -91.489800 5.312750 -74.310700 5.348090 -0.000007 -0.000001 -63.680900 35.468300 -15.426900 24.328600 0.000019 0.000005 12.720200 25.762300 -27.444800 22.291600 -0.000001 0.000005 6.910470 5.340260 -1.085950 12.994500 -0.242716 -4.980390 88.113700 11.637000 -80.727000 -5.348130 -0.000001 -0.000004 -62.599400 35.043600 -8.509120 -24.328900 0.000322 -0.000009 1.849630 5.437510 -18.828600 -22.291500 -0.000108 -0.000004 12.105700 5.382000 -2.361350 -2.192480 -6.469440 -0.000000 -172.561000 -14.985900 6.668150 39.081100 -0.000007 -0.000012 -0.171993 0.328395 27.642900 40.985400 -0.000006 -0.000013 0.736578 9.204320 -70.318400 11.754300 -0.000000 0.000003 -0.000202 -0.001871 -16.648100 -2.192510 6.469440 -0.000001 170.386000 24.482400 -171.346000 -39.081100 -0.002282 -0.040193 -0.215244 0.425664 27.177900 -40.985400 0.000008 0.000006 4.833500 19.050300 -71.512300 -11.754300 -0.000006 -0.000006 -0.000756 -0.011879 -17.056400
0.000000 0.000000 0.000000 0.000000 0.000000 -0.000000 -1.972000 91.067600 1.621200 89.864000 -2.782700 13.578000 15.735700 0.000005 -0.000001 82.410500 82.072000 -81.713000 8.984550 -0.406207 -0.000000 7.968080 -2.084060 1.538880 16.377300 -0.000001 -0.000001 18.664300 -6.561720 0.016994 6.456720 -0.000001 -0.000000 11.231300 -7.413300 4.570350 12.994200 -0.242716 4.980390 -91.470100 5.213630 -74.228800 5.348090 -0.000007 -0.000001 -60.948300 34.847500 -18.287300 24.328600 0.000019 0.000005 14.051800 26.502300 -29.287200 22.291600 -0.000001 0.000005 7.166420 5.350660 -1.396900 12.994500 -0.242716 -4.980390 88.126500 11.505600 -80.686900 -5.348130 -0.000001 -0.000004 -62.858200 35.007100 -8.384430 -24.328900 0.000322 -0.000009 1.828020 5.333230 -18.961200 -22.291500 -0.000108 -0.000004 12.035200 5.381620 -2.349270 -2.192480 -6.469440 -0.000000 -172.566000 -14.712200 6.712210 39.081100 -0.000007 -0.000012 -0.171658 0.326379 27.742200 40.985400 -0.000006 -0.000013 0.737785 9.377130 -70.258600 11.754300 -0.000000 0.000003 -0.000209 -0.001918 -16.649800 -2.192510 6.469440 -0.000001 170.243000 24.722500 -171.127000 -39.081100 -0.002282 -0.040193 -0.213733 0.420798 27.284200 -40.985400 0.000008 0.000006 4.882760 18.895200 -71.561400 -11.754300 -0.000006 -0.000006 -0.000631 -0.010015 -16.980600
0.000000 0.000000 0.000000 0.000000 0.000000 -0.000000 -2.069050 91.058300 1.504810 89.893300 -2.320760 13.832300 15.735700 0.000005 -0.000001 82.446200 82.000300 -81.787600 8.984550 -0.406207 -0.000000 8.111040 -2.092050 1.464350 16.377300 -0.000001 -0.000001 19.832700 -7.131200 0.459105 6.456720 -0.000001 -0.000000 11.826200 -8.151900 5.114150 12.994200 -0.242716 4.980390 -91.419900 5.014150 -74.167200 5.348090 -0.000007 -0.000001 -58.061700 33.138600 -21.705900 24.328600 0.000019 0.000005 14.713300 26.193900 -30.748300 22.291600 -0.000001 0.000005 7.809300 5.350710 -1.398710 12.994500 -0.242716 -4.980390 88.146200 11.396500 -80.697600 -5.348130 -0.000001 -0.000004 -63.094500 35.047900 -8.186230 -24.328900 0.000322 -0.000009 1.824940 5.314470 -18.993500 -22.291500 -0.000108 -0.000004 11.961200 5.382310 -2.372020 -2.192480 -6.469440 -0.000000 -172.526000 -14.466900 6.758980 39.081100 -0.000007 -0.000012 -0.171028 0.323651 27.853700 40.985400 -0.000006 -0.000013 0.740874 9.605690 -70.184700 11.754300 -0.000000 0.000003 -0.000206 -0.001897 -16.649100 -2.192510 6.469440 -0.000001 170.103000 25.003800 -170.876000 -39.081100 -0.002282 -0.040193 -0.214991 0.421520 27.379200 -40.985400 0.000008 0.000006 4.933530 18.710400 -71.596400 -11.754300 -0.000006 -0.000006 -0.000787 -0.012334 -17.074800
